HIERARCHY
ROOT Hips
{
    OFFSET 0.000000 0.000000 0.000000
    CHANNELS 6 Xposition Yposition Zposition Zrotation Xrotation Yrotation
    JOINT Spine
    {
        OFFSET -0.000000 8.312343 0.000000
        CHANNELS 3 Zrotation Xrotation Yrotation
        JOINT Spine1
        {
            OFFSET -0.000000 28.293047 0.000000
            CHANNELS 3 Zrotation Xrotation Yrotation
            JOINT Neck
            {
                OFFSET -0.000000 28.176853 2.561532
                CHANNELS 3 Zrotation Xrotation Yrotation
                JOINT Head
                {
                    OFFSET -0.000000 14.191803 -2.027400
                    CHANNELS 3 Zrotation Xrotation Yrotation
                    End Site
                    {
                        OFFSET -0.000000 25.342506 0.000000
                    }
                }
            }
            JOINT LeftShoulder
            {
                OFFSET 4.015815 26.370180 -0.268885
                CHANNELS 3 Zrotation Xrotation Yrotation
                JOINT LeftArm
                {
                    OFFSET 11.299099 0.000000 0.000000
                    CHANNELS 3 Zrotation Xrotation Yrotation
                    JOINT LeftForeArm
                    {
                        OFFSET 30.537071 0.000000 0.000000
                        CHANNELS 3 Zrotation Xrotation Yrotation
                        JOINT LeftHand
                        {
                            OFFSET 29.851767 0.000000 0.000000
                            CHANNELS 3 Zrotation Xrotation Yrotation
                            End Site
                            {
                                OFFSET 15.205504 0.000000 0.000000
                            }
                        }
                    }
                }
            }
            JOINT RightShoulder
            {
                OFFSET -4.091585 26.370180 -0.268885
                CHANNELS 3 Zrotation Xrotation Yrotation
                JOINT RightArm
                {
                    OFFSET -11.299099 0.000000 0.000000
                    CHANNELS 3 Zrotation Xrotation Yrotation
                    JOINT RightForeArm
                    {
                        OFFSET -30.537071 0.000000 0.000000
                        CHANNELS 3 Zrotation Xrotation Yrotation
                        JOINT RightHand
                        {
                            OFFSET -29.851767 0.000000 0.000000
                            CHANNELS 3 Zrotation Xrotation Yrotation
                            End Site
                            {
                                OFFSET -15.205504 0.000000 0.000000
                            }
                        }
                    }
                }
            }
        }
    }
    JOINT LeftUpLeg
    {
        OFFSET 10.137003 0.000000 0.000000
        CHANNELS 3 Zrotation Xrotation Yrotation
        JOINT LeftLeg
        {
            OFFSET -0.000000 -31.675148 0.000000
            CHANNELS 3 Zrotation Xrotation Yrotation
            JOINT LeftFoot
            {
                OFFSET -0.000000 -48.008553 0.000000
                CHANNELS 3 Zrotation Xrotation Yrotation
                JOINT LeftToeBase
                {
                    OFFSET -0.000000 -6.589051 15.205504
                    CHANNELS 3 Zrotation Xrotation Yrotation
                    End Site
                    {
                        OFFSET -0.000000 0.000000 4.054801
                    }
                }
            }
        }
    }
    JOINT RightUpLeg
    {
        OFFSET -10.137003 0.000000 0.000000
        CHANNELS 3 Zrotation Xrotation Yrotation
        JOINT RightLeg
        {
            OFFSET -0.000000 -31.675148 0.000000
            CHANNELS 3 Zrotation Xrotation Yrotation
            JOINT RightFoot
            {
                OFFSET -0.000000 -48.008553 0.000000
                CHANNELS 3 Zrotation Xrotation Yrotation
                JOINT RightToeBase
                {
                    OFFSET -0.000000 -6.589051 15.205504
                    CHANNELS 3 Zrotation Xrotation Yrotation
                    End Site
                    {
                        OFFSET -0.000000 0.000000 4.054801
                    }
                }
            }
        }
    }
}
MOTION
Frames:    4
Frame Time:    0.008333
98.510864    87.169594    -6.007142    -1.524529    -0.046363    85.968216    3.927724    -12.623699    -3.335071    9.415209    8.591732    -4.478399    -11.291245    18.412941    -5.135698    4.274087    -3.588749    -4.837273    11.855360    -5.139210    0.356611    -1.877167    -4.969444    -0.361592    2.418943    -25.303469    -9.450214    27.076227    -19.961571    22.890234    -12.007145    0.736256    1.781036    77.674873    64.158112    -3.974298    -1.496298    -14.531787    35.500633    -9.900998    -14.715862    7.714953    12.197307    -5.598197    2.853008    -7.859134    13.158851    11.361042    -9.734036    1.511651    20.015177    0.000000    0.000000    0.000000    0.036016    -3.090313    -0.721174    1.987077    12.758300    -4.363914    3.765865    -7.242537    -9.417818    0.000000    0.000000    0.000000    
98.445457    87.283821    -5.968259    -1.785664    0.042284    86.010742    3.726180    -12.602909    -3.361708    9.218491    8.028995    -4.421555    -11.739092    18.456749    -5.180655    4.842444    -3.079173    -4.821107    11.920476    -5.076772    0.563500    -0.273389    -4.437870    -1.009861    3.499054    -25.515055    -10.263537    26.663378    -20.449232    21.628689    -11.856771    0.946725    1.894873    77.177650    64.499763    -3.565961    -1.532331    -14.305090    35.270897    -9.857841    -14.501999    7.993457    12.018498    -5.575482    2.778723    -7.663612    12.566282    11.495732    -9.913219    2.110803    20.010361    0.000000    0.000000    0.000000    -0.022190    -2.956219    -0.761737    2.010288    12.043481    -4.260485    3.424427    -6.676168    -9.573193    0.000000    0.000000    0.000000    
98.403503    87.400116    -5.936177    -1.877031    0.142388    86.037712    3.577025    -12.592253    -3.528671    8.954238    7.807798    -4.535647    -12.789490    18.097952    -5.053307    5.990560    -2.186900    -4.518449    11.860847    -5.280475    1.033875    1.511011    -3.768097    -1.397040    4.434286    -25.367437    -11.350795    25.327215    -20.917995    19.384148    -11.826153    0.823222    2.525368    77.355324    64.514740    -3.704267    -1.649288    -14.187519    35.209522    -9.801619    -14.322218    7.712502    11.764901    -5.300332    2.737316    -7.388560    11.872648    11.593061    -10.111294    2.712023    19.999638    0.000000    0.000000    0.000000    -0.114078    -2.649672    -0.697727    2.065207    11.336636    -4.310144    3.868019    -6.438953    -9.567090    0.000000    0.000000    0.000000    
98.357323    87.519028    -5.900591    -1.897172    0.228001    86.073593    3.276828    -12.406731    -3.493885    8.858241    7.412870    -4.425032    -13.218225    17.916191    -5.267280    6.646670    -1.413490    -4.664112    12.045548    -5.355345    1.034772    3.052425    -4.346354    -2.124693    5.239754    -25.042154    -12.226029    25.400898    -20.670118    18.400024    -11.795391    0.764990    2.631525    77.629509    64.620743    -4.031027    -1.807614    -13.966618    35.095547    -9.607807    -14.050223    7.814847    11.596158    -4.998774    2.580466    -7.258700    11.242123    11.599952    -10.217745    3.345952    20.223885    0.000000    0.000000    0.000000    -0.145803    -2.267430    -0.669939    2.036834    10.620461    -4.339478    3.755386    -6.011561    -9.621408    0.000000    0.000000    0.000000    
